<svg width="34" height="34" viewBox="0 0 34 34" fill="none" xmlns="http://www.w3.org/2000/svg">
<rect opacity="0.4" width="34" height="34" rx="10" fill="#E0E0E0"/>
<path d="M24.9687 23.3106L23.6667 11.0606C23.6667 10.2905 23.07 9.66669 22.3333 9.66669H17H11.6667C10.93 9.66669 10.3333 10.2905 10.3333 11.0606L9.03133 23.3106C9.012 23.406 9 23.5043 9 23.6061C9 24.3762 9.59667 25 10.3333 25H17H23.6667C24.4033 25 25 24.3762 25 23.6061C25 23.5043 24.988 23.406 24.9687 23.3106ZM20.3333 13.0874V13.8485C20.3333 15.7701 18.838 17.3334 17 17.3334C15.162 17.3334 13.6667 15.7701 13.6667 13.8485V13.0874C13.2793 12.9438 13 12.5605 13 12.1061C13 11.529 13.448 11.0606 14 11.0606C14.552 11.0606 15 11.529 15 12.1061V13.8485C15 15.0013 15.8973 15.9394 17 15.9394C18.1027 15.9394 19 15.0013 19 13.8485V12.1061C19 11.529 19.448 11.0606 20 11.0606C20.552 11.0606 21 11.529 21 12.1061C21 12.5605 20.7207 12.9438 20.3333 13.0874Z" fill="#303030"/>
</svg>
