<svg width="16" height="20" viewBox="0 0 16 20" fill="none" xmlns="http://www.w3.org/2000/svg">
<path fill-rule="evenodd" clip-rule="evenodd" d="M0.292573 15.6855C0.0825728 15.4755 -0.0224272 15.1835 0.00357275 14.8875L0.382573 10.7175C0.424573 10.2605 0.626573 9.8295 0.952573 9.5035L9.94857 0.507504C10.6506 -0.197496 11.9236 -0.162496 12.6646 0.576504L15.4026 3.3145L15.4036 3.3155C16.1686 4.0815 16.1996 5.2995 15.4716 6.0295L6.47457 15.0265C6.14957 15.3515 5.71857 15.5535 5.26057 15.5955L1.09057 15.9745C1.06057 15.9765 1.03057 15.9775 0.999573 15.9775C0.736573 15.9775 0.481573 15.8735 0.292573 15.6855ZM12.0186 6.6565L9.32357 3.9615L11.2716 2.0125L13.9656 4.7065L12.0186 6.6565ZM5.07957 13.6025L2.10257 13.8735L2.36657 10.9175L7.98357 5.3005L10.6796 7.9975L5.07957 13.6025ZM14.9996 19.9775C15.5496 19.9775 15.9996 19.5275 15.9996 18.9775C15.9996 18.4285 15.5496 17.9775 14.9996 17.9775H0.999573C0.450573 17.9775 -0.000427246 18.4285 -0.000427246 18.9775C-0.000427246 19.5275 0.450573 19.9775 0.999573 19.9775H14.9996Z" fill="#242424"/>
</svg>
